HIERARCHY
ROOT root
{
	OFFSET	0	13.1	24.9
	CHANNELS 6  Xposition Yposition Zposition Xrotation Yrotation Zrotation
	JOINT spine_1
	{
		OFFSET	0	9.99999	0
		CHANNELS 3  Xrotation Yrotation Zrotation
		JOINT spine_2
		{
			OFFSET	0	112	-10
			CHANNELS 3  Xrotation Yrotation Zrotation
			JOINT spine_3
			{
				OFFSET	0	206.5	19.3
				CHANNELS 3  Xrotation Yrotation Zrotation
				JOINT spine_4
				{
					OFFSET	0	110.4	14.6
					CHANNELS 3  Xrotation Yrotation Zrotation
					JOINT neck_1
					{
						OFFSET	0	71.8	-50.3
						CHANNELS 3  Xrotation Yrotation Zrotation
						JOINT neck_2
						{
							OFFSET	0	86.2	-25.8
							CHANNELS 3  Xrotation Yrotation Zrotation
							JOINT head_ee
							{
								OFFSET	0	179.8	-8.7
								CHANNELS 3  Xrotation Yrotation Zrotation
								End Site
								{
									OFFSET	1	0	0
								}
							}
						}
					}
					JOINT left_clavicle
					{
						OFFSET	-43.2	22.4	-70.8
						CHANNELS 3  Xrotation Yrotation Zrotation
						JOINT left_shoulder
						{
							OFFSET	-93.9	-5.79999	48.7
							CHANNELS 3  Xrotation Yrotation Zrotation
							JOINT left_elbow
							{
								OFFSET	-291.4	-30.8	15.2
								CHANNELS 3  Xrotation Yrotation Zrotation
								JOINT left_lowarm_twist
								{
									OFFSET	-110.7	-3.89999	13.6
									CHANNELS 3  Xrotation Yrotation Zrotation
									JOINT left_hand
									{
										OFFSET	-110.7	-3.89999	13.6
										CHANNELS 3  Xrotation Yrotation Zrotation
										JOINT left_ee
										{
											OFFSET	-80.8	-5.10001	12.1
											CHANNELS 3  Xrotation Yrotation Zrotation
											End Site
											{
												OFFSET	1	0	0
											}
										}
									}
								}
							}
						}
					}
					JOINT right_clavicle
					{
						OFFSET	43.2	22.4	-70.8
						CHANNELS 3  Xrotation Yrotation Zrotation
						JOINT right_shoulder
						{
							OFFSET	93.9	-5.79999	48.7
							CHANNELS 3  Xrotation Yrotation Zrotation
							JOINT right_elbow
							{
								OFFSET	291.4	-30.8	15.2
								CHANNELS 3  Xrotation Yrotation Zrotation
								JOINT right_lowarm_twist
								{
									OFFSET	110.7	-3.89999	13.6
									CHANNELS 3  Xrotation Yrotation Zrotation
									JOINT right_hand
									{
										OFFSET	110.7	-3.89999	13.6
										CHANNELS 3  Xrotation Yrotation Zrotation
										JOINT right_ee
										{
											OFFSET	80.8	-5.10001	12.1
											CHANNELS 3  Xrotation Yrotation Zrotation
											End Site
											{
												OFFSET	1	0	0
											}
										}
									}
								}
							}
						}
					}
				}
			}
		}
	}
	JOINT left_hip
	{
		OFFSET	-82.8	-127.5	0.300001
		CHANNELS 3  Xrotation Yrotation Zrotation
		JOINT left_knee
		{
			OFFSET	-28.2	-396.7	2.2
			CHANNELS 3  Xrotation Yrotation Zrotation
			JOINT left_ankle
			{
				OFFSET	-11.7	-411.3	35.4
				CHANNELS 3  Xrotation Yrotation Zrotation
				JOINT left_toes
				{
					OFFSET	0	-60	-88.6
					CHANNELS 3  Xrotation Yrotation Zrotation
					JOINT left_foot_ee
					{
						OFFSET	-22.5	-16.5	-42.2
						CHANNELS 3  Xrotation Yrotation Zrotation
						End Site
						{
							OFFSET	1	0	0
						}
					}
				}
			}
		}
	}
	JOINT right_hip
	{
		OFFSET	82.8	-127.5	0.300001
		CHANNELS 3  Xrotation Yrotation Zrotation
		JOINT right_knee
		{
			OFFSET	28.2	-396.7	2.2
			CHANNELS 3  Xrotation Yrotation Zrotation
			JOINT right_ankle
			{
				OFFSET	11.7	-411.3	35.4
				CHANNELS 3  Xrotation Yrotation Zrotation
				JOINT right_toes
				{
					OFFSET	0	-60	-88.6
					CHANNELS 3  Xrotation Yrotation Zrotation
					JOINT right_foot_ee
					{
						OFFSET	22.5	-16.5	-42.2
						CHANNELS 3  Xrotation Yrotation Zrotation
						End Site
						{
							OFFSET	1	0	0
						}
					}
				}
			}
		}
	}
}
MOTION
Frames: 11
Frame Time: 0.02
1985.9 710.381 -1437.57 -0.792149 60.2898 -1.28982 0.226899 0.286232 1.16735 0.227633 0.211376 1.18319 0.232407 -0.0371414 1.20135 0.230425 0.153042 1.19214 -10.882 18.1372 4.01995 -11.3145 31.693 8.8764 -0.0 0.0 -0.0 0.827343 23.8754 3.88147 -11.0799 -12.6789 63.1181 1.67128 -39.6182 0.602033 -51.2856 -4.22318 4.74845 2.18872 18.9924 21.362 -0.0 0.0 -0.0 12.1328 23.1388 -23.9809 -11.1368 21.9421 -63.2143 0.510165 14.1831 -0.0634683 83.9598 4.3024 8.81704 2.4176 -19.6873 -23.0562 0.0 0.0 0.0 -4.03417 48.1362 -5.83083 -2.36975 0.0902925 0.352443 22.1587 -27.2678 -3.61725 -7.28883 0.0 0.0 -0.0 0.0 -0.0 5.08373 11.5994 4.7136 -11.1848 -0.296536 -1.68816 33.4945 25.9617 4.98928 -31.2801 0.0 0.0 0.0 0.0 0.0 
1980.27 706.943 -1437.79 -0.923619 61.8924 -1.16975 0.258174 0.144606 1.11337 0.258861 0.073471 1.12032 0.260599 -0.158595 1.11146 0.258876 0.0189187 1.12256 -11.2853 17.6087 3.31267 -11.7635 31.2157 8.17135 -0.0 0.0 -0.0 1.02336 23.725 4.13573 -10.2504 -13.5945 62.4382 1.81439 -41.945 0.695528 -51.4321 -4.24053 4.7557 1.89608 17.3784 18.977 -0.0 0.0 -0.0 12.2049 23.6665 -24.0959 -11.6021 21.6507 -63.1375 0.331386 9.32266 -0.0270198 84.2338 4.33502 8.83019 2.36144 -20.4824 -22.9024 0.0 0.0 0.0 -4.60222 49.4572 -5.52606 0.464457 -0.0194037 -0.0686327 21.197 -26.4548 -3.44725 -7.42582 0.0 0.0 -0.0 0.0 -0.0 5.17054 11.5403 5.12368 -13.3528 -0.315599 -2.02024 37.6782 27.0886 5.4965 -31.6524 0.0 0.0 0.0 0.0 0.0 
1978.77 708.843 -1442.05 -1.32422 61.8865 -0.55474 0.249439 0.304292 0.98438 0.249946 0.24104 1.00175 0.254473 0.0297035 1.02991 0.253044 0.191977 1.01229 -10.4133 17.9178 2.84331 -10.822 31.9645 7.5547 -0.0 0.0 -0.0 1.16319 23.4539 4.30595 -9.37461 -14.6105 61.8983 1.95034 -44.0087 0.788225 -51.5052 -4.24919 4.7593 1.61213 15.5954 16.5666 -0.0 0.0 -0.0 12.3418 23.9158 -24.3859 -11.9991 20.8727 -63.8117 0.196584 5.56218 -0.00954952 84.3748 4.35183 8.8369 2.256 -20.9745 -22.3492 0.0 0.0 0.0 -5.14742 50.5013 -5.00916 2.3521 -0.103981 -0.345916 20.3032 -25.8423 -3.29592 -7.83846 0.0 0.0 -0.0 0.0 -0.0 5.27226 11.2665 4.59927 -12.9478 -0.312993 -1.95816 37.3574 27.5088 5.48949 -31.7526 0.0 0.0 0.0 0.0 0.0 
1974.5 710.946 -1439.89 -1.63442 62.448 -0.277924 0.319781 0.258795 1.02535 0.320345 0.193029 1.03974 0.324151 -0.0238225 1.05724 0.322619 0.143438 1.04773 -10.6775 17.2051 3.01732 -11.0691 30.5406 7.58563 -0.0 0.0 -0.0 1.27592 23.6068 4.47143 -9.09694 -14.8554 61.7045 2.17453 -47.1223 0.948363 -51.8973 -4.29572 4.77843 1.20173 13.3434 13.1408 -0.0 0.0 -0.0 12.1381 24.3907 -23.8703 -12.091 18.6944 -64.0756 0.175711 4.97473 -0.00763293 84.6297 4.38224 8.84891 1.76145 -21.6997 -19.4013 0.0 0.0 0.0 -5.60935 50.3597 -4.6819 3.3587 -0.152812 -0.492624 18.6201 -25.4625 -3.03814 -7.7249 0.0 0.0 -0.0 0.0 -0.0 5.58612 9.83624 4.9239 -14.5004 -0.320601 -2.19624 36.6954 27.0824 5.39592 -31.1661 0.0 0.0 0.0 0.0 0.0 
1972.86 706.777 -1440.61 -1.79562 62.9322 -0.129361 0.280839 0.306409 1.05417 0.281426 0.238713 1.07153 0.286235 0.0136707 1.09771 0.284602 0.186852 1.08178 -8.9959 16.8771 0.76117 -9.23335 31.1712 4.83454 -0.0 0.0 -0.0 1.00686 23.9504 4.13108 -8.93308 -16.2221 61.3312 2.4154 -50.105 1.12915 -51.9451 -4.3014 4.78074 0.713275 11.3311 9.2508 -0.0 0.0 -0.0 12.1145 24.646 -23.79 -12.4272 16.2683 -64.113 0.1778 5.03358 -0.00781517 85.2945 4.46183 8.87962 1.24382 -19.9095 -15.6267 0.0 0.0 0.0 -6.20375 51.7504 -4.08635 4.8551 -0.23016 -0.709112 18.8641 -25.1909 -3.06461 -7.58837 0.0 0.0 -0.0 0.0 -0.0 5.98678 8.62224 4.77497 -15.0712 -0.321776 -2.28381 37.0797 26.971 5.42881 -28.7805 0.0 0.0 0.0 0.0 0.0 
1968.09 708.401 -1441.91 -2.52819 63.165 0.931017 0.405519 0.208587 0.950254 0.40601 0.1477 0.9616 0.408724 -0.0507727 0.97155 0.407421 0.103295 0.967377 -9.18197 15.9541 0.308444 -9.41385 29.7637 4.20561 -0.0 0.0 -0.0 0.856477 23.8204 3.91641 -9.07683 -16.9998 61.4525 2.48498 -50.903 1.18284 -51.6387 -4.26502 4.76585 0.153585 10.3486 5.26904 -0.0 0.0 -0.0 12.7684 25.1037 -25.2444 -13.4449 15.0271 -62.8721 0.157012 4.44759 -0.00609709 84.8817 4.41236 8.86066 0.270736 -21.8723 -10.3809 0.0 0.0 0.0 -5.68433 52.0465 -4.19675 5.90853 -0.288 -0.860292 17.7746 -22.9221 -2.83558 -7.80695 0.0 0.0 -0.0 0.0 -0.0 5.52058 8.70501 4.53711 -14.537 -0.320702 -2.20185 37.7527 26.0233 5.44157 -28.1371 0.0 0.0 0.0 0.0 0.0 
1963.13 706.5 -1445.17 -3.10816 63.9935 1.18837 0.436421 0.182889 0.938035 0.436902 0.122832 0.94777 0.43915 -0.0718094 0.952995 0.437891 0.0795925 0.952376 -8.70647 15.4365 0.695053 -8.87071 28.4639 4.31786 -0.0 0.0 -0.0 0.557539 24.3946 3.56316 -9.80414 -17.0843 61.3771 2.72652 -53.4745 1.37371 -51.4922 -4.24765 4.75866 -0.438666 8.95937 0.891432 -0.0 0.0 -0.0 13.0738 24.8131 -25.9824 -14.1199 12.3342 -62.0713 0.188951 5.34749 -0.00882398 85.2051 4.45109 8.87554 -0.276096 -20.9246 -6.78075 0.0 0.0 0.0 -5.08478 50.9329 -4.61305 5.4514 -0.262558 -0.794817 17.2136 -25.2905 -2.82437 -7.27742 0.0 0.0 -0.0 0.0 -0.0 5.26089 9.02647 4.72853 -13.7631 -0.317792 -2.08315 37.6783 26.9848 5.4903 -25.6266 0.0 0.0 0.0 0.0 0.0 
1956.85 706.684 -1445.52 -3.09145 64.154 1.22981 0.407337 0.172847 0.904183 0.407785 0.114964 0.913349 0.409821 -0.0730077 0.917655 0.408653 0.0728288 0.91767 -7.57848 13.8415 -0.67171 -7.61873 26.288 2.31069 -0.0 0.0 -0.0 0.391555 24.9229 3.39149 -10.6502 -17.7114 61.7503 2.95253 -55.6279 1.55786 -51.2547 -4.21953 4.74691 -1.25733 8.32522 -4.67221 -0.0 0.0 -0.0 13.1548 24.6309 -26.1902 -14.0798 11.4558 -61.654 0.177323 5.02015 -0.00777339 85.2039 4.45096 8.87549 -0.622463 -20.8508 -4.70152 0.0 0.0 0.0 -4.45852 50.1241 -5.5157 2.80121 -0.125448 -0.411476 18.2546 -22.6863 -2.89793 -6.6792 0.0 0.0 -0.0 0.0 -0.0 5.19829 9.38491 4.59388 -14.651 -0.320995 -2.21934 37.4025 24.724 5.33507 -26.1944 0.0 0.0 0.0 0.0 0.0 
1951.17 701.951 -1447.57 -3.56343 64.4693 1.47049 0.393036 0.261143 0.885672 0.393449 0.204258 0.900492 0.39689 0.0168398 0.923212 0.395737 0.162426 0.908969 -9.23489 14.2533 -2.21575 -9.42039 28.2788 1.31227 -0.0 0.0 -0.0 0.215097 25.1088 3.17654 -10.8287 -16.8771 62.1449 3.14364 -57.2811 1.71716 -51.3147 -4.22663 4.74989 -1.08881 7.84261 -3.79551 -0.0 0.0 -0.0 13.5276 25.5796 -26.9502 -14.7996 10.1131 -61.3064 0.16725 4.7363 -0.00691674 84.8262 4.40572 8.85809 -1.3288 -22.8719 -1.44307 0.0 0.0 0.0 -4.99803 52.166 -4.19066 4.44234 -0.208259 -0.649595 17.5521 -20.1101 -2.72882 -7.61255 0.0 0.0 -0.0 0.0 -0.0 4.47216 7.60171 5.13722 -14.0724 -0.319147 -2.13059 38.5865 24.5601 5.4422 -24.2759 0.0 0.0 0.0 0.0 0.0 
1940.74 700.985 -1452.92 -2.11094 65.0854 -0.364483 0.286411 0.359458 1.07832 0.287011 0.290117 1.09901 0.292955 0.0584837 1.13514 0.291235 0.237013 1.11167 -8.34682 14.2533 -1.77946 -8.45042 27.9077 1.50379 -0.0 0.0 -0.0 -0.544435 24.4961 2.09875 -12.3802 -17.8518 62.5101 3.46099 -59.7318 1.98782 -50.0496 -4.07761 4.6855 -1.70674 8.33749 -7.58895 -0.0 0.0 -0.0 13.0792 25.4294 -25.9264 -13.5455 9.55016 -62.9564 0.2121 5.99811 -0.0111122 84.6319 4.38251 8.84902 -1.89412 -26.5829 0.037746 0.0 0.0 0.0 -3.59367 51.5161 -6.15459 -0.237269 0.00969737 0.0351199 20.8509 -21.2149 -3.21766 -5.45408 0.0 0.0 -0.0 0.0 -0.0 3.7866 7.10901 5.81524 -17.477 -0.31714 -2.65287 38.097 23.9065 5.36052 -19.1815 0.0 0.0 0.0 0.0 0.0 
1930.98 699.425 -1460.04 -1.5355 66.288 -1.42688 0.504044 0.466722 1.31275 0.504922 0.38225 1.33978 0.514373 0.104657 1.3893 0.511824 0.322737 1.35534 -7.68454 14.329 -2.01311 -7.72367 28.1527 1.11531 -0.0 0.0 -0.0 -0.885987 23.403 1.49455 -13.9655 -15.9707 63.0525 3.45686 -59.702 1.98426 -50.3037 -4.10742 4.69869 -1.81012 7.94685 -8.44939 -0.0 0.0 -0.0 12.9108 25.4021 -25.5398 -12.4471 8.41768 -64.4256 0.199754 5.65128 -0.00985915 85.26 4.45768 8.87805 -2.52481 -28.8028 2.36724 0.0 0.0 0.0 -2.30695 49.6318 -7.57589 -3.3025 0.121817 0.49212 23.0176 -20.3915 -3.48206 -5.2021 0.0 0.0 -0.0 0.0 -0.0 3.17239 6.95088 6.40523 -19.572 -0.300486 -2.97386 38.0302 24.5855 5.38962 -16.6283 0.0 0.0 0.0 0.0 0.0 
